<svg width="17" height="17" viewBox="0 0 17 17" fill="none" xmlns="http://www.w3.org/2000/svg">
<path d="M1.74444 16.5L0.5 15.2556L9.61111 6.14444C9.34444 5.52222 9.30741 4.81852 9.5 4.03333C9.69259 3.24815 10.1148 2.54444 10.7667 1.92222C11.5519 1.13704 12.4259 0.677778 13.3889 0.544444C14.3519 0.411111 15.137 0.648148 15.7444 1.25556C16.3519 1.86296 16.5889 2.64815 16.4556 3.61111C16.3222 4.57407 15.863 5.44815 15.0778 6.23333C14.4556 6.88519 13.7519 7.30741 12.9667 7.5C12.1815 7.69259 11.4778 7.65556 10.8556 7.38889L9.74444 8.5L16.5 15.2556L15.2556 16.5L8.5 9.78889L1.74444 16.5ZM4.36667 8.9L1.7 6.23333C0.9 5.43333 0.5 4.47778 0.5 3.36667C0.5 2.25556 0.9 1.3 1.7 0.5L7.21111 6.05556L4.36667 8.9Z" fill="black" fill-opacity="0.6"/>
</svg>
