<svg width="26" height="27" viewBox="0 0 26 27" fill="none" xmlns="http://www.w3.org/2000/svg">
<path d="M6.5 8.05977C5.785 8.05977 5.17292 7.80518 4.66375 7.29602C4.15458 6.78685 3.9 6.17477 3.9 5.45977V2.85977C3.9 2.14477 4.15458 1.53268 4.66375 1.02352C5.17292 0.514349 5.785 0.259766 6.5 0.259766H19.5C20.215 0.259766 20.8271 0.514349 21.3362 1.02352C21.8454 1.53268 22.1 2.14477 22.1 2.85977V5.45977C22.1 6.17477 21.8454 6.78685 21.3362 7.29602C20.8271 7.80518 20.215 8.05977 19.5 8.05977H6.5ZM6.5 5.45977H19.5V2.85977H6.5V5.45977ZM2.6 26.2598C1.885 26.2598 1.27292 26.0052 0.76375 25.496C0.254583 24.9868 0 24.3748 0 23.6598V22.3598H26V23.6598C26 24.3748 25.7454 24.9868 25.2362 25.496C24.7271 26.0052 24.115 26.2598 23.4 26.2598H2.6ZM0 21.0598L4.5175 10.8873C4.73417 10.4106 5.05917 10.0368 5.4925 9.76602C5.92583 9.49518 6.39167 9.35977 6.89 9.35977H19.11C19.6083 9.35977 20.0742 9.49518 20.5075 9.76602C20.9408 10.0368 21.2658 10.4106 21.4825 10.8873L26 21.0598H0ZM8.45 18.4598H9.75C9.92333 18.4598 10.075 18.3948 10.205 18.2648C10.335 18.1348 10.4 17.9831 10.4 17.8098C10.4 17.6364 10.335 17.4848 10.205 17.3548C10.075 17.2248 9.92333 17.1598 9.75 17.1598H8.45C8.27667 17.1598 8.125 17.2248 7.995 17.3548C7.865 17.4848 7.8 17.6364 7.8 17.8098C7.8 17.9831 7.865 18.1348 7.995 18.2648C8.125 18.3948 8.27667 18.4598 8.45 18.4598ZM8.45 15.8598H9.75C9.92333 15.8598 10.075 15.7948 10.205 15.6648C10.335 15.5348 10.4 15.3831 10.4 15.2098C10.4 15.0364 10.335 14.8848 10.205 14.7548C10.075 14.6248 9.92333 14.5598 9.75 14.5598H8.45C8.27667 14.5598 8.125 14.6248 7.995 14.7548C7.865 14.8848 7.8 15.0364 7.8 15.2098C7.8 15.3831 7.865 15.5348 7.995 15.6648C8.125 15.7948 8.27667 15.8598 8.45 15.8598ZM8.45 13.2598H9.75C9.92333 13.2598 10.075 13.1948 10.205 13.0648C10.335 12.9348 10.4 12.7831 10.4 12.6098C10.4 12.4364 10.335 12.2848 10.205 12.1548C10.075 12.0248 9.92333 11.9598 9.75 11.9598H8.45C8.27667 11.9598 8.125 12.0248 7.995 12.1548C7.865 12.2848 7.8 12.4364 7.8 12.6098C7.8 12.7831 7.865 12.9348 7.995 13.0648C8.125 13.1948 8.27667 13.2598 8.45 13.2598ZM12.35 18.4598H13.65C13.8233 18.4598 13.975 18.3948 14.105 18.2648C14.235 18.1348 14.3 17.9831 14.3 17.8098C14.3 17.6364 14.235 17.4848 14.105 17.3548C13.975 17.2248 13.8233 17.1598 13.65 17.1598H12.35C12.1767 17.1598 12.025 17.2248 11.895 17.3548C11.765 17.4848 11.7 17.6364 11.7 17.8098C11.7 17.9831 11.765 18.1348 11.895 18.2648C12.025 18.3948 12.1767 18.4598 12.35 18.4598ZM12.35 15.8598H13.65C13.8233 15.8598 13.975 15.7948 14.105 15.6648C14.235 15.5348 14.3 15.3831 14.3 15.2098C14.3 15.0364 14.235 14.8848 14.105 14.7548C13.975 14.6248 13.8233 14.5598 13.65 14.5598H12.35C12.1767 14.5598 12.025 14.6248 11.895 14.7548C11.765 14.8848 11.7 15.0364 11.7 15.2098C11.7 15.3831 11.765 15.5348 11.895 15.6648C12.025 15.7948 12.1767 15.8598 12.35 15.8598ZM12.35 13.2598H13.65C13.8233 13.2598 13.975 13.1948 14.105 13.0648C14.235 12.9348 14.3 12.7831 14.3 12.6098C14.3 12.4364 14.235 12.2848 14.105 12.1548C13.975 12.0248 13.8233 11.9598 13.65 11.9598H12.35C12.1767 11.9598 12.025 12.0248 11.895 12.1548C11.765 12.2848 11.7 12.4364 11.7 12.6098C11.7 12.7831 11.765 12.9348 11.895 13.0648C12.025 13.1948 12.1767 13.2598 12.35 13.2598ZM16.25 18.4598H17.55C17.7233 18.4598 17.875 18.3948 18.005 18.2648C18.135 18.1348 18.2 17.9831 18.2 17.8098C18.2 17.6364 18.135 17.4848 18.005 17.3548C17.875 17.2248 17.7233 17.1598 17.55 17.1598H16.25C16.0767 17.1598 15.925 17.2248 15.795 17.3548C15.665 17.4848 15.6 17.6364 15.6 17.8098C15.6 17.9831 15.665 18.1348 15.795 18.2648C15.925 18.3948 16.0767 18.4598 16.25 18.4598ZM16.25 15.8598H17.55C17.7233 15.8598 17.875 15.7948 18.005 15.6648C18.135 15.5348 18.2 15.3831 18.2 15.2098C18.2 15.0364 18.135 14.8848 18.005 14.7548C17.875 14.6248 17.7233 14.5598 17.55 14.5598H16.25C16.0767 14.5598 15.925 14.6248 15.795 14.7548C15.665 14.8848 15.6 15.0364 15.6 15.2098C15.6 15.3831 15.665 15.5348 15.795 15.6648C15.925 15.7948 16.0767 15.8598 16.25 15.8598ZM16.25 13.2598H17.55C17.7233 13.2598 17.875 13.1948 18.005 13.0648C18.135 12.9348 18.2 12.7831 18.2 12.6098C18.2 12.4364 18.135 12.2848 18.005 12.1548C17.875 12.0248 17.7233 11.9598 17.55 11.9598H16.25C16.0767 11.9598 15.925 12.0248 15.795 12.1548C15.665 12.2848 15.6 12.4364 15.6 12.6098C15.6 12.7831 15.665 12.9348 15.795 13.0648C15.925 13.1948 16.0767 13.2598 16.25 13.2598Z" fill="#010515"/>
</svg>
