<svg width="33" height="32" viewBox="0 0 33 32" fill="none" xmlns="http://www.w3.org/2000/svg">
<path d="M7.16665 26.6667V14.4667L3.43331 17.3333L1.83331 15.2L16.5 4L21.8333 8.06667V5.33333H25.8333V11.1333L31.1666 15.2L29.5666 17.3333L25.8333 14.4667V26.6667H17.8333V18.6667H15.1666V26.6667H7.16665ZM9.83331 24H12.5V16H20.5V24H23.1666V12.4333L16.5 7.36667L9.83331 12.4333V24ZM13.8333 13.3667H19.1666C19.1666 12.6556 18.9 12.0722 18.3666 11.6167C17.8333 11.1611 17.2111 10.9333 16.5 10.9333C15.7889 10.9333 15.1666 11.1611 14.6333 11.6167C14.1 12.0722 13.8333 12.6556 13.8333 13.3667Z" fill="#1A1A1A"/>
</svg>
