<svg width="32" height="32" viewBox="0 0 32 32" fill="none" xmlns="http://www.w3.org/2000/svg">
<path d="M5.33335 29.333V14.6663H2.66669V6.66634H9.60002C9.48891 6.46634 9.41669 6.25523 9.38335 6.03301C9.35002 5.81079 9.33335 5.57745 9.33335 5.33301C9.33335 4.2219 9.72224 3.27745 10.5 2.49967C11.2778 1.7219 12.2222 1.33301 13.3334 1.33301C13.8445 1.33301 14.3222 1.42745 14.7667 1.61634C15.2111 1.80523 15.6222 2.06634 16 2.39967C16.3778 2.04412 16.7889 1.77745 17.2334 1.59967C17.6778 1.4219 18.1556 1.33301 18.6667 1.33301C19.7778 1.33301 20.7222 1.7219 21.5 2.49967C22.2778 3.27745 22.6667 4.2219 22.6667 5.33301C22.6667 5.57745 22.6445 5.80523 22.6 6.01634C22.5556 6.22745 22.4889 6.44412 22.4 6.66634H29.3334V14.6663H26.6667V29.333H5.33335ZM18.6667 3.99967C18.2889 3.99967 17.9722 4.12745 17.7167 4.38301C17.4611 4.63856 17.3334 4.95523 17.3334 5.33301C17.3334 5.71079 17.4611 6.02745 17.7167 6.28301C17.9722 6.53856 18.2889 6.66634 18.6667 6.66634C19.0445 6.66634 19.3611 6.53856 19.6167 6.28301C19.8722 6.02745 20 5.71079 20 5.33301C20 4.95523 19.8722 4.63856 19.6167 4.38301C19.3611 4.12745 19.0445 3.99967 18.6667 3.99967ZM12 5.33301C12 5.71079 12.1278 6.02745 12.3834 6.28301C12.6389 6.53856 12.9556 6.66634 13.3334 6.66634C13.7111 6.66634 14.0278 6.53856 14.2834 6.28301C14.5389 6.02745 14.6667 5.71079 14.6667 5.33301C14.6667 4.95523 14.5389 4.63856 14.2834 4.38301C14.0278 4.12745 13.7111 3.99967 13.3334 3.99967C12.9556 3.99967 12.6389 4.12745 12.3834 4.38301C12.1278 4.63856 12 4.95523 12 5.33301ZM5.33335 9.33301V11.9997H14.6667V9.33301H5.33335ZM14.6667 26.6663V14.6663H8.00002V26.6663H14.6667ZM17.3334 26.6663H24V14.6663H17.3334V26.6663ZM26.6667 11.9997V9.33301H17.3334V11.9997H26.6667Z" fill="#1A1A1A"/>
</svg>
