<svg width="17" height="19" viewBox="0 0 17 19" fill="none" xmlns="http://www.w3.org/2000/svg">
<path d="M2.27778 18.8332C1.78889 18.8332 1.37037 18.6591 1.02222 18.311C0.674074 17.9628 0.5 17.5443 0.5 17.0554V6.38873C0.5 5.89984 0.674074 5.48132 1.02222 5.13317C1.37037 4.78502 1.78889 4.61095 2.27778 4.61095H4.05556C4.05556 3.38132 4.48889 2.33317 5.35556 1.4665C6.22222 0.599837 7.27037 0.166504 8.5 0.166504C9.72963 0.166504 10.7778 0.599837 11.6444 1.4665C12.5111 2.33317 12.9444 3.38132 12.9444 4.61095H14.7222C15.2111 4.61095 15.6296 4.78502 15.9778 5.13317C16.3259 5.48132 16.5 5.89984 16.5 6.38873V17.0554C16.5 17.5443 16.3259 17.9628 15.9778 18.311C15.6296 18.6591 15.2111 18.8332 14.7222 18.8332H2.27778ZM8.5 11.7221C9.72963 11.7221 10.7778 11.2887 11.6444 10.4221C12.5111 9.55539 12.9444 8.50725 12.9444 7.27762H11.1667C11.1667 8.01836 10.9074 8.64799 10.3889 9.1665C9.87037 9.68502 9.24074 9.94428 8.5 9.94428C7.75926 9.94428 7.12963 9.68502 6.61111 9.1665C6.09259 8.64799 5.83333 8.01836 5.83333 7.27762H4.05556C4.05556 8.50725 4.48889 9.55539 5.35556 10.4221C6.22222 11.2887 7.27037 11.7221 8.5 11.7221ZM5.83333 4.61095H11.1667C11.1667 3.87021 10.9074 3.24058 10.3889 2.72206C9.87037 2.20354 9.24074 1.94428 8.5 1.94428C7.75926 1.94428 7.12963 2.20354 6.61111 2.72206C6.09259 3.24058 5.83333 3.87021 5.83333 4.61095Z" fill="#5F6368"/>
</svg>
