<svg width="27" height="27" viewBox="0 0 27 27" fill="none" xmlns="http://www.w3.org/2000/svg">
<path d="M9.6 16.1848C9.145 16.1848 8.76042 16.0277 8.44625 15.7135C8.13208 15.3993 7.975 15.0148 7.975 14.5598C7.975 14.1048 8.13208 13.7202 8.44625 13.406C8.76042 13.0918 9.145 12.9348 9.6 12.9348C10.055 12.9348 10.4396 13.0918 10.7537 13.406C11.0679 13.7202 11.225 14.1048 11.225 14.5598C11.225 15.0148 11.0679 15.3993 10.7537 15.7135C10.4396 16.0277 10.055 16.1848 9.6 16.1848ZM17.4 16.1848C16.945 16.1848 16.5604 16.0277 16.2462 15.7135C15.9321 15.3993 15.775 15.0148 15.775 14.5598C15.775 14.1048 15.9321 13.7202 16.2462 13.406C16.5604 13.0918 16.945 12.9348 17.4 12.9348C17.855 12.9348 18.2396 13.0918 18.5537 13.406C18.8679 13.7202 19.025 14.1048 19.025 14.5598C19.025 15.0148 18.8679 15.3993 18.5537 15.7135C18.2396 16.0277 17.855 16.1848 17.4 16.1848ZM13.5 23.6598C16.4033 23.6598 18.8625 22.6523 20.8775 20.6373C22.8925 18.6223 23.9 16.1631 23.9 13.2598C23.9 12.7398 23.8675 12.236 23.8025 11.7485C23.7375 11.261 23.6183 10.7898 23.445 10.3348C22.99 10.4431 22.535 10.5243 22.08 10.5785C21.625 10.6327 21.1483 10.6598 20.65 10.6598C18.6783 10.6598 16.815 10.2373 15.06 9.39227C13.305 8.54727 11.81 7.36643 10.575 5.84977C9.88167 7.53977 8.89042 9.00768 7.60125 10.2535C6.31208 11.4993 4.81167 12.4364 3.1 13.0648V13.2598C3.1 16.1631 4.1075 18.6223 6.1225 20.6373C8.1375 22.6523 10.5967 23.6598 13.5 23.6598ZM13.5 26.2598C11.7017 26.2598 10.0117 25.9185 8.43 25.236C6.84833 24.5535 5.4725 23.6273 4.3025 22.4573C3.1325 21.2873 2.20625 19.9114 1.52375 18.3298C0.84125 16.7481 0.5 15.0581 0.5 13.2598C0.5 11.4614 0.84125 9.77143 1.52375 8.18977C2.20625 6.6081 3.1325 5.23227 4.3025 4.06227C5.4725 2.89227 6.84833 1.96602 8.43 1.28352C10.0117 0.601016 11.7017 0.259766 13.5 0.259766C15.2983 0.259766 16.9883 0.601016 18.57 1.28352C20.1517 1.96602 21.5275 2.89227 22.6975 4.06227C23.8675 5.23227 24.7937 6.6081 25.4762 8.18977C26.1587 9.77143 26.5 11.4614 26.5 13.2598C26.5 15.0581 26.1587 16.7481 25.4762 18.3298C24.7937 19.9114 23.8675 21.2873 22.6975 22.4573C21.5275 23.6273 20.1517 24.5535 18.57 25.236C16.9883 25.9185 15.2983 26.2598 13.5 26.2598ZM11.745 3.02227C12.655 4.53893 13.89 5.75768 15.45 6.67852C17.01 7.59935 18.7433 8.05977 20.65 8.05977C20.9533 8.05977 21.2458 8.04352 21.5275 8.01102C21.8092 7.97852 22.1017 7.9406 22.405 7.89727C21.495 6.3806 20.26 5.16185 18.7 4.24102C17.14 3.32018 15.4067 2.85977 13.5 2.85977C13.1967 2.85977 12.9042 2.87602 12.6225 2.90852C12.3408 2.94102 12.0483 2.97893 11.745 3.02227ZM3.6525 9.97727C4.7575 9.34893 5.72167 8.53643 6.545 7.53977C7.36833 6.5431 7.98583 5.42727 8.3975 4.19227C7.2925 4.8206 6.32833 5.6331 5.505 6.62977C4.68167 7.62643 4.06417 8.74227 3.6525 9.97727Z" fill="#010515"/>
</svg>
