<svg width="25" height="28" viewBox="0 0 25 28" fill="none" xmlns="http://www.w3.org/2000/svg">
<path d="M11.0417 22.89L6.11111 17.92L8.125 15.89L11.0417 18.83L16.875 12.95L18.8889 14.98L11.0417 22.89ZM2.77778 28C2.01389 28 1.35995 27.7258 0.815972 27.1775C0.271991 26.6292 0 25.97 0 25.2V5.6C0 4.83 0.271991 4.17083 0.815972 3.6225C1.35995 3.07417 2.01389 2.8 2.77778 2.8H4.16667V0H6.94444V2.8H18.0556V0H20.8333V2.8H22.2222C22.9861 2.8 23.64 3.07417 24.184 3.6225C24.728 4.17083 25 4.83 25 5.6V25.2C25 25.97 24.728 26.6292 24.184 27.1775C23.64 27.7258 22.9861 28 22.2222 28H2.77778ZM2.77778 25.2H22.2222V11.2H2.77778V25.2ZM2.77778 8.4H22.2222V5.6H2.77778V8.4Z" fill="#FEFEFE"/>
</svg>
