<svg width="20" height="20" viewBox="0 0 20 20" fill="none" xmlns="http://www.w3.org/2000/svg">
<path d="M6.02582 12.6982L5.02582 11.6982L1.92582 12.6882H1.82582C1.77709 12.6913 1.72827 12.6839 1.68259 12.6667C1.6369 12.6494 1.5954 12.6227 1.56082 12.5882L0.835822 11.8732C0.777257 11.8175 0.73978 11.7433 0.729754 11.6631C0.719728 11.5829 0.737773 11.5016 0.780822 11.4332L1.62582 9.97824C2.14921 9.08253 2.87938 8.32511 3.75532 7.76928C4.63126 7.21345 5.62751 6.87535 6.66082 6.78324L7.90582 6.67323C8.62916 5.81323 9.29582 5.07657 9.90582 4.46323C11.0632 3.23726 12.4448 2.24436 13.9758 1.53823C15.5364 0.954921 17.1956 0.681486 18.8608 0.733235C18.9616 0.734131 19.0581 0.77348 19.1308 0.843235C19.1654 0.875037 19.1931 0.913673 19.212 0.956703C19.231 0.999734 19.2408 1.04622 19.2408 1.09323C19.275 2.7634 18.9776 4.42376 18.3658 5.97823C17.6779 7.51376 16.6961 8.89981 15.4758 10.0582C14.8608 10.6782 14.1208 11.3432 13.2658 12.0582L13.1558 13.2982C13.0661 14.331 12.7306 15.3274 12.1774 16.2041C11.6243 17.0809 10.8694 17.8126 9.97582 18.3382L8.53082 19.1832C8.47382 19.2133 8.41026 19.2287 8.34582 19.2282C8.25014 19.2263 8.15816 19.1909 8.08582 19.1282L7.36082 18.3982C7.31401 18.3535 7.28075 18.2964 7.26483 18.2337C7.24891 18.1709 7.25099 18.1049 7.27082 18.0432L8.23582 14.9082L7.26582 13.9382M16.6858 5.32823C16.6872 4.7854 16.4731 4.26421 16.0907 3.87896C15.7083 3.49372 15.1887 3.27588 14.6458 3.27323C14.3678 3.25951 14.0898 3.30242 13.8288 3.39937C13.5679 3.49632 13.3293 3.64529 13.1277 3.83723C12.926 4.02918 12.7655 4.26009 12.6558 4.51597C12.5461 4.77184 12.4895 5.04734 12.4895 5.32573C12.4895 5.60413 12.5461 5.87963 12.6558 6.1355C12.7655 6.39138 12.926 6.62229 13.1277 6.81424C13.3293 7.00618 13.5679 7.15515 13.8288 7.2521C14.0898 7.34905 14.3678 7.39196 14.6458 7.37823C15.1848 7.37902 15.7023 7.16699 16.0858 6.78824C16.2787 6.59789 16.431 6.37032 16.5333 6.11934C16.6355 5.86836 16.6857 5.59921 16.6808 5.32823H16.6858Z" stroke="#97C6EA" stroke-width="1.2" stroke-linecap="round" stroke-linejoin="round"/>
<path d="M13.2858 12.0581L8.23584 14.9081" stroke="#97C6EA" stroke-width="1.2" stroke-linecap="round" stroke-linejoin="round"/>
<path d="M7.90578 6.67334L5.05078 11.7233" stroke="#97C6EA" stroke-width="1.2" stroke-linecap="round" stroke-linejoin="round"/>
<path d="M4.47559 15.4782C6.47559 15.1082 10.0256 11.7782 10.4406 9.51318C8.16059 9.94818 4.83059 13.4782 4.47559 15.4782Z" stroke="#97C6EA" stroke-width="1.2" stroke-linecap="round" stroke-linejoin="round"/>
</svg>
