<svg width="36" height="36" viewBox="0 0 36 36" fill="none" xmlns="http://www.w3.org/2000/svg">
<rect width="36" height="36" rx="18" fill="#9C82D8"/>
<path d="M14.7234 13.0748C13.9653 13.3265 13.5532 14.1479 13.8048 14.906C14.0064 15.5133 14.5734 15.8984 15.1808 15.8984C15.3316 15.8984 15.4851 15.8745 15.636 15.8245C16.394 15.5729 16.8061 14.7514 16.5545 13.9934C16.3029 13.2354 15.4813 12.8233 14.7234 13.0748ZM15.4145 15.1572C15.0244 15.2868 14.6017 15.0746 14.4722 14.6844C14.3428 14.2943 14.5548 13.8716 14.9449 13.7422C15.0225 13.7164 15.1015 13.7042 15.1791 13.7042C15.4917 13.7042 15.7835 13.9024 15.8873 14.2149C16.0167 14.605 15.8046 15.0277 15.4145 15.1572Z" fill="#F3F3F3"/>
<path d="M21.2177 16.0807C20.9655 15.3225 20.1439 14.9105 19.3861 15.1625C18.6285 15.4138 18.2164 16.2352 18.4676 16.9932C18.4823 17.0376 18.4995 17.0809 18.5182 17.1234H17.0584L19.5818 12.0926L18.9533 11.7773L16.2718 17.1234H12.5479V17.8265H23.8212V17.1234H21.1687C21.3099 16.804 21.3348 16.4349 21.2177 16.0807ZM19.1351 16.7723C19.0058 16.382 19.2177 15.9593 19.6077 15.8299C19.998 15.7003 20.4207 15.9124 20.5503 16.3022C20.6509 16.6062 20.549 16.9315 20.3027 17.1235H19.3829C19.2681 17.0338 19.1813 16.9121 19.1351 16.7723Z" fill="#F3F3F3"/>
<path d="M16.1663 25.5126L16.6636 26.0098L22.103 20.5696L21.6057 20.0724L16.1663 25.5126Z" fill="#F3F3F3"/>
<path d="M17.1825 19.9736C16.3837 19.9736 15.7339 20.6235 15.7339 21.4222C15.7339 22.221 16.3837 22.8709 17.1825 22.8709C17.9812 22.8709 18.631 22.221 18.631 21.4222C18.631 20.6235 17.9812 19.9736 17.1825 19.9736ZM17.1825 22.1677C16.7714 22.1677 16.437 21.8333 16.437 21.4221C16.437 21.0111 16.7714 20.6767 17.1825 20.6767C17.5935 20.6767 17.9278 21.0111 17.9278 21.4221C17.9279 21.8333 17.5935 22.1677 17.1825 22.1677Z" fill="#F3F3F3"/>
<path d="M19.502 24.8725C19.502 25.6712 20.1518 26.3211 20.9506 26.3211C21.7494 26.3211 22.3992 25.6712 22.3992 24.8725C22.3992 24.0737 21.7494 23.4238 20.9506 23.4238C20.1518 23.4238 19.502 24.0737 19.502 24.8725ZM21.696 24.8725C21.696 25.2835 21.3616 25.6179 20.9505 25.6179C20.5394 25.6179 20.205 25.2835 20.205 24.8725C20.205 24.4614 20.5394 24.127 20.9505 24.127C21.3616 24.127 21.696 24.4614 21.696 24.8725Z" fill="#F3F3F3"/>
<path d="M4.92627 17.8263H8.04273C8.85005 17.8263 9.50691 18.682 9.50691 19.7338H10.21C10.21 18.682 10.8668 17.8262 11.6742 17.8262V17.1231C10.8669 17.1231 10.21 16.2673 10.21 15.2155H9.50691C9.50691 16.2673 8.85005 17.1231 8.04273 17.1231L4.22314 17.1232V20.3468L2.41421 14.8971L5.37247 13.9159L5.15113 13.2485L1.52539 14.4512L4.22321 22.5789V29.1692H23.8211V28.4661H4.92627V17.8263ZM9.85855 16.6384C10.0445 16.9814 10.2953 17.2687 10.5901 17.4747C10.2953 17.6809 10.0445 17.9681 9.85855 18.3111C9.67264 17.9681 9.42177 17.6809 9.12695 17.4747C9.42177 17.2687 9.67264 16.9814 9.85855 16.6384Z" fill="#F3F3F3"/>
<path d="M27.9111 28.4663H26.0166V29.1694H27.9111V28.4663Z" fill="#F3F3F3"/>
<path d="M34.1231 20.8843H34.4746V17.1235H26.0166V17.8267H33.7715V20.2022C32.325 20.3764 31.2005 21.6112 31.2005 23.1037C31.2005 24.5967 32.325 25.8319 33.7715 26.006V28.4665H32.4323V28.4663C31.6249 28.4663 30.9681 27.6106 30.9681 26.5588H30.265C30.265 27.6106 29.6081 28.4663 28.8008 28.4663V29.1695C29.6081 29.1695 30.265 30.0253 30.265 31.0771H30.9681C30.9681 30.0262 31.6237 29.1711 32.4302 29.1696H34.4746V25.3239H34.1231C32.8993 25.3239 31.9037 24.328 31.9037 23.1037C31.9036 21.8799 32.8992 20.8843 34.1231 20.8843ZM30.6165 29.6542C30.4305 29.3112 30.1797 29.024 29.8849 28.8178C30.1797 28.6118 30.4306 28.3246 30.6165 27.9815C30.8025 28.3246 31.0533 28.6118 31.348 28.8178C31.0533 29.024 30.8024 29.3112 30.6165 29.6542Z" fill="#F3F3F3"/>
<path d="M25.2505 26.6152H24.5474V27.3887H25.2505V26.6152Z" fill="#F3F3F3"/>
<path d="M25.2505 21.9746H24.5474V22.748H25.2505V21.9746Z" fill="#F3F3F3"/>
<path d="M25.2505 23.5215H24.5474V24.2949H25.2505V23.5215Z" fill="#F3F3F3"/>
<path d="M25.2505 28.1621H24.5474V28.9355H25.2505V28.1621Z" fill="#F3F3F3"/>
<path d="M25.2505 25.0684H24.5474V25.8418H25.2505V25.0684Z" fill="#F3F3F3"/>
<path d="M25.2505 17.334H24.5474V18.1074H25.2505V17.334Z" fill="#F3F3F3"/>
<path d="M25.2505 18.8809H24.5474V19.6543H25.2505V18.8809Z" fill="#F3F3F3"/>
<path d="M25.2505 20.4277H24.5474V21.2012H25.2505V20.4277Z" fill="#F3F3F3"/>
<path d="M27.8926 24.2046H27.1895V25.6036H27.8926V24.2046Z" fill="#F3F3F3"/>
<path d="M27.8926 20.436H27.1895V23.5016H27.8926V20.436Z" fill="#F3F3F3"/>
<path d="M29.1519 20.436H28.4487V25.6037H29.1519V20.436Z" fill="#F3F3F3"/>
<path d="M14.0883 20.9424H7.83691V21.6455H14.0883V20.9424Z" fill="#F3F3F3"/>
<path d="M7.1334 20.9424H6.3125V21.6455H7.1334V20.9424Z" fill="#F3F3F3"/>
<path d="M11.7553 24.8198H6.3125V25.5229H11.7553V24.8198Z" fill="#F3F3F3"/>
<path d="M14.0881 22.8809H13.0098V23.584H14.0881V22.8809Z" fill="#F3F3F3"/>
<path d="M12.4542 22.8809H6.3125V23.584H12.4542V22.8809Z" fill="#F3F3F3"/>
<path d="M20.3489 8.94614L20.1274 8.27881L9.42778 11.8288L9.64919 12.4962L20.3489 8.94614Z" fill="#F3F3F3"/>
<path d="M29.791 5.81167L30.5393 8.0661C29.9491 8.3432 29.4717 8.80705 29.1748 9.39895C28.8247 10.0968 28.7673 10.8891 29.0132 11.6299C29.2591 12.3711 29.779 12.972 30.4767 13.3222C31.0686 13.6191 31.7285 13.7056 32.3675 13.5749L33.2532 16.2435L33.9205 16.0221L32.82 12.7059L32.4863 12.8166C31.9238 13.0033 31.3221 12.9596 30.7921 12.6937C30.2621 12.4279 29.8673 11.9714 29.6805 11.4085C29.4938 10.8459 29.5374 10.2442 29.8032 9.7143C30.0691 9.18435 30.5253 8.78969 31.0878 8.60294L31.4215 8.49219L30.2369 4.92285L22.2095 7.58699L22.4309 8.25433L29.791 5.81167Z" fill="#F3F3F3"/>
<path d="M21.6125 10.4524L22.2798 10.231L22.0362 9.49689L21.3689 9.71835L21.6125 10.4524Z" fill="#F3F3F3"/>
<path d="M23.3174 15.5897L23.561 16.3237L24.2284 16.1022L23.9847 15.3682L23.3174 15.5897Z" fill="#F3F3F3"/>
<path d="M21.7924 8.76232L21.5488 8.02832L20.8816 8.24978L21.1252 8.98378L21.7924 8.76232Z" fill="#F3F3F3"/>
<path d="M23.7417 14.6349L23.498 13.9009L22.8308 14.1223L23.0744 14.8563L23.7417 14.6349Z" fill="#F3F3F3"/>
<path d="M21.8575 11.1863L22.1011 11.9204L22.7683 11.699L22.5248 10.9649L21.8575 11.1863Z" fill="#F3F3F3"/>
<path d="M23.2549 13.1667L23.0112 12.4326L22.344 12.6541L22.5876 13.3881L23.2549 13.1667Z" fill="#F3F3F3"/>
<path d="M26.1596 13.7366L25.4922 13.958L25.9327 15.2858L26.6001 15.0644L26.1596 13.7366Z" fill="#F3F3F3"/>
<path d="M24.9726 10.1599L24.3052 10.3813L25.2705 13.2909L25.9379 13.0694L24.9726 10.1599Z" fill="#F3F3F3"/>
<path d="M27.19 14.8694L27.8574 14.6479L26.2301 9.7433L25.5627 9.96473L27.19 14.8694Z" fill="#F3F3F3"/>
</svg>
