<svg width="24" height="20" viewBox="0 0 24 20" fill="none" xmlns="http://www.w3.org/2000/svg">
<path d="M7.74836 14.2859L16.3198 5.71442M0.856934 16.8573C0.856933 17.3113 1.03707 17.7469 1.35782 18.0683C1.67857 18.3896 2.11373 18.5707 2.56779 18.5716H21.4318C21.8859 18.5707 22.321 18.3896 22.6418 18.0683C22.9625 17.7469 23.1426 17.3113 23.1426 16.8573V13.3704C22.4025 13.1697 21.7489 12.7309 21.283 12.1218C20.817 11.5126 20.5646 10.7671 20.5646 10.0001C20.5646 9.23322 20.817 8.48764 21.283 7.8785C21.7489 7.26937 22.4025 6.83057 23.1426 6.62985V3.143C23.1426 2.68893 22.9625 2.25342 22.6418 1.93202C22.321 1.61063 21.8859 1.42962 21.4318 1.42871H2.56779C2.11373 1.42962 1.67857 1.61063 1.35782 1.93202C1.03707 2.25342 0.856933 2.68893 0.856934 3.143V6.623C1.60302 6.81923 2.26313 7.257 2.73418 7.86797C3.20522 8.47893 3.46069 9.22867 3.46069 10.0001C3.46069 10.7716 3.20522 11.5214 2.73418 12.1323C2.26313 12.7433 1.60302 13.181 0.856934 13.3773V16.8573Z" stroke="#97C6EA" stroke-width="2" stroke-linecap="round" stroke-linejoin="round"/>
<path d="M8.60568 7.42864C8.83301 7.42864 9.05102 7.33834 9.21177 7.17759C9.37251 7.01684 9.46282 6.79883 9.46282 6.5715C9.46282 6.34417 9.37251 6.12615 9.21177 5.96541C9.05102 5.80466 8.83301 5.71436 8.60568 5.71436C8.37835 5.71436 8.16033 5.80466 7.99959 5.96541C7.83884 6.12615 7.74854 6.34417 7.74854 6.5715C7.74854 6.79883 7.83884 7.01684 7.99959 7.17759C8.16033 7.33834 8.37835 7.42864 8.60568 7.42864ZM15.4628 14.2858C15.6902 14.2858 15.9082 14.1955 16.0689 14.0347C16.2297 13.874 16.32 13.656 16.32 13.4286C16.32 13.2013 16.2297 12.9833 16.0689 12.8225C15.9082 12.6618 15.6902 12.5715 15.4628 12.5715C15.2355 12.5715 15.0175 12.6618 14.8567 12.8225C14.696 12.9833 14.6057 13.2013 14.6057 13.4286C14.6057 13.656 14.696 13.874 14.8567 14.0347C15.0175 14.1955 15.2355 14.2858 15.4628 14.2858Z" stroke="#97C6EA" stroke-width="2" stroke-linecap="round" stroke-linejoin="round"/>
</svg>
