<svg width="36" height="36" viewBox="0 0 36 36" fill="none" xmlns="http://www.w3.org/2000/svg">
<rect width="36" height="36" rx="18" fill="#B3E9C7"/>
<path d="M10.5524 16.453C10.9806 16.9533 11.445 17.4214 11.9418 17.8536C13.1737 18.7267 14.6209 19.2461 16.1268 19.3555C17.3812 19.5186 18.7481 19.4849 19.9743 19.8336C20.8012 20.0699 22.1456 21.0936 21.5887 22.1117C21.1893 22.8374 20.1037 22.7192 19.3893 23.1411C19.2729 23.2018 19.1813 23.3013 19.1306 23.4224C19.1137 23.5073 19.115 23.5947 19.1344 23.6791C19.1538 23.7634 19.1908 23.8427 19.2431 23.9117C19.4515 24.1962 19.6395 24.495 19.8056 24.8061C19.8844 24.9632 19.9193 25.1387 19.9064 25.314C19.8935 25.4893 19.8334 25.6579 19.7324 25.8017C19.4888 26.0228 19.1726 26.1469 18.8437 26.1505C16.7568 26.4205 14.6362 26.713 12.5549 26.3699C12.1953 26.3553 11.8429 26.2645 11.5209 26.1035C11.199 25.9426 10.9149 25.7151 10.6874 25.4361C10.2768 24.7892 10.4568 23.9511 10.4231 23.1861C10.3724 22.0611 9.86057 21.0036 9.46682 19.9292C8.99065 18.3199 8.70372 16.6606 8.61182 14.9849C9.36764 15.3105 10.0334 15.8143 10.5524 16.453Z" fill="#97C6EA"/>
<path d="M10.1248 16.1717C10.1248 16.1717 9.79296 19.2542 13.5561 20.9473C17.3192 22.6404 11.2498 22.9217 11.2498 22.9217C11.2498 22.9217 10.6873 26.3248 9.41609 19.4117C8.14484 12.4986 10.1248 16.1717 10.1248 16.1717Z" fill="#CFE5F5"/>
<path d="M13.3143 26.3585H12.5943C12.101 26.357 11.6282 26.1604 11.2794 25.8116C10.9305 25.4627 10.7339 24.99 10.7324 24.4966C10.7339 24.0033 10.9305 23.5306 11.2794 23.1817C11.6282 22.8329 12.101 22.6363 12.5943 22.6348H13.3143C13.5595 22.634 13.8025 22.6816 14.0294 22.7748C14.2562 22.8679 14.4625 23.0049 14.6365 23.1778C14.8104 23.3507 14.9486 23.5561 15.0431 23.7824C15.1376 24.0087 15.1867 24.2514 15.1874 24.4966C15.1867 24.7419 15.1376 24.9846 15.0431 25.2109C14.9486 25.4372 14.8104 25.6426 14.6365 25.8155C14.4625 25.9884 14.2562 26.1254 14.0294 26.2185C13.8025 26.3117 13.5595 26.3593 13.3143 26.3585Z" fill="#CFE5F5"/>
<path d="M8.40381 13.9218C8.82339 15.0011 9.60692 15.8999 10.6189 16.4628C11.6309 17.0257 12.8078 17.2173 13.9461 17.0044C15.0844 16.7916 16.1125 16.1877 16.8528 15.2972C17.593 14.4066 17.9988 13.2855 18.0001 12.1274" stroke="#1A1A1A" stroke-width="2" stroke-linecap="round" stroke-linejoin="round"/>
<path d="M18 12.1274C17.9965 13.2885 18.3999 14.4142 19.1401 15.3087C19.8803 16.2033 20.9105 16.8103 22.0517 17.0242C23.1929 17.2382 24.373 17.0455 25.387 16.4798C26.4009 15.914 27.1846 15.011 27.6019 13.9274" stroke="#1A1A1A" stroke-width="2" stroke-linecap="round" stroke-linejoin="round"/>
<path d="M23.7432 26.3585H12.2457C11.7523 26.357 11.2796 26.1604 10.9308 25.8115C10.5819 25.4627 10.3853 24.99 10.3838 24.4966C10.3853 24.0033 10.5819 23.5306 10.9308 23.1817C11.2796 22.8329 11.7523 22.6362 12.2457 22.6348H23.7432C24.2365 22.6362 24.7092 22.8329 25.0581 23.1817C25.4069 23.5306 25.6036 24.0033 25.605 24.4966" stroke="#1A1A1A" stroke-width="2" stroke-linecap="round" stroke-linejoin="round"/>
<path d="M8.06641 12.1333L9.78203 21.2852" stroke="#1A1A1A" stroke-width="2" stroke-linecap="round" stroke-linejoin="round"/>
<path d="M27.934 12.1333L25.5996 24.4971" stroke="#1A1A1A" stroke-width="2" stroke-linecap="round" stroke-linejoin="round"/>
<path d="M19.3445 18.9337C19.3445 19.1969 19.2666 19.4542 19.1206 19.6732C18.9746 19.8922 18.767 20.063 18.5241 20.1642C18.2811 20.2655 18.0137 20.2925 17.7554 20.242C17.4971 20.1914 17.2595 20.0656 17.0727 19.8803C16.8858 19.695 16.7579 19.4585 16.7052 19.2006C16.6525 18.9428 16.6773 18.6751 16.7765 18.4313C16.8757 18.1875 17.0448 17.9785 17.2625 17.8307C17.4803 17.6829 17.7369 17.6028 18.0001 17.6006" stroke="#1A1A1A" stroke-width="2" stroke-linecap="round" stroke-linejoin="round"/>
<path d="M19.3445 10.8226C19.3433 11.0856 19.2645 11.3423 19.1178 11.5606C18.9712 11.7788 18.7632 11.9488 18.5202 12.0492C18.2771 12.1495 18.0099 12.1758 17.7519 12.1246C17.494 12.0734 17.257 11.9471 17.0707 11.7616C16.8843 11.5761 16.7571 11.3396 16.7048 11.0819C16.6526 10.8242 16.6777 10.5568 16.777 10.3133C16.8764 10.0698 17.0455 9.8612 17.2631 9.71362C17.4807 9.56604 17.7371 9.48611 18.0001 9.48389" stroke="#1A1A1A" stroke-width="2" stroke-linecap="round" stroke-linejoin="round"/>
<path d="M29.2502 10.8224C29.2502 11.086 29.172 11.3438 29.0256 11.563C28.8791 11.7823 28.6709 11.9531 28.4273 12.054C28.1837 12.1549 27.9156 12.1813 27.657 12.1299C27.3984 12.0785 27.1609 11.9515 26.9744 11.765C26.788 11.5786 26.661 11.3411 26.6096 11.0825C26.5582 10.8239 26.5846 10.5558 26.6855 10.3122C26.7864 10.0686 26.9572 9.86041 27.1765 9.71393C27.3957 9.56744 27.6534 9.48926 27.9171 9.48926" stroke="#1A1A1A" stroke-width="2" stroke-linecap="round" stroke-linejoin="round"/>
<path d="M8.06641 12.1558C7.71209 12.1558 7.37229 12.015 7.12176 11.7645C6.87122 11.5139 6.73047 11.1741 6.73047 10.8198C6.73047 10.4655 6.87122 10.1257 7.12176 9.87517C7.37229 9.62464 7.71209 9.48389 8.06641 9.48389" stroke="#1A1A1A" stroke-width="2" stroke-linecap="round" stroke-linejoin="round"/>
<path d="M25.3296 26.8145C25.6403 26.8145 25.8921 26.5626 25.8921 26.252C25.8921 25.9413 25.6403 25.6895 25.3296 25.6895C25.0189 25.6895 24.7671 25.9413 24.7671 26.252C24.7671 26.5626 25.0189 26.8145 25.3296 26.8145Z" fill="#1A1A1A"/>
</svg>
