<svg width="30" height="22" viewBox="0 0 30 22" fill="none" xmlns="http://www.w3.org/2000/svg">
<rect x="2" y="6" width="22" height="15" rx="1" fill="#F2F2F2"/>
<path d="M2 7C2 6.44772 2.44772 6 3 6H23C23.5523 6 24 6.44772 24 7V10H2V7Z" fill="#E0E0E0"/>
<rect x="4" y="13" width="18" height="2" rx="1" fill="#FCFCFC"/>
<g clip-path="url(#clip0_5194_10122)">
<path d="M21 15C24.3137 15 27 12.3137 27 9C27 5.68629 24.3137 3 21 3C17.6863 3 15 5.68629 15 9C15 12.3137 17.6863 15 21 15Z" fill="#4F4F4F"/>
<path d="M18.1045 6.6499V10.9272H17.3281V7.55518L16.2998 7.89502V7.26807L18.0166 6.6499H18.1045Z" fill="#FCFCFC"/>
<path d="M22.4287 10.3179V10.9272H19.54V10.4058L20.9258 8.90869C21.0703 8.74463 21.1846 8.60205 21.2686 8.48096C21.3525 8.35986 21.4121 8.25049 21.4473 8.15283C21.4844 8.05322 21.5029 7.9585 21.5029 7.86865C21.5029 7.73779 21.4795 7.62354 21.4326 7.52588C21.3857 7.42627 21.3174 7.34912 21.2275 7.29443C21.1396 7.23975 21.0312 7.2124 20.9023 7.2124C20.7598 7.2124 20.6377 7.24561 20.5361 7.31201C20.4365 7.37646 20.3604 7.46631 20.3076 7.58154C20.2568 7.69678 20.2314 7.82861 20.2314 7.97705H19.4551C19.4551 7.7251 19.5137 7.49561 19.6309 7.28857C19.748 7.07959 19.916 6.9126 20.1348 6.7876C20.3535 6.6626 20.6133 6.6001 20.9141 6.6001C21.207 6.6001 21.4551 6.64893 21.6582 6.74658C21.8613 6.84229 22.0156 6.979 22.1211 7.15674C22.2266 7.33447 22.2793 7.54639 22.2793 7.79248C22.2793 7.9292 22.2568 8.06396 22.2119 8.19678C22.167 8.32959 22.1035 8.46143 22.0215 8.59229C21.9414 8.72119 21.8457 8.85205 21.7344 8.98486C21.623 9.11768 21.499 9.25342 21.3623 9.39209L20.5303 10.3179H22.4287Z" fill="#FCFCFC"/>
<path d="M23.8145 8.45166H24.251C24.4053 8.45166 24.5322 8.42529 24.6318 8.37256C24.7334 8.31787 24.8086 8.24365 24.8574 8.1499C24.9082 8.0542 24.9336 7.94385 24.9336 7.81885C24.9336 7.6958 24.9111 7.58936 24.8662 7.49951C24.8213 7.40771 24.7529 7.3374 24.6611 7.28857C24.5713 7.23779 24.4561 7.2124 24.3154 7.2124C24.2021 7.2124 24.0977 7.23486 24.002 7.27979C23.9082 7.32471 23.833 7.38916 23.7764 7.47314C23.7217 7.55518 23.6943 7.65381 23.6943 7.76904H22.918C22.918 7.53857 22.9785 7.33643 23.0996 7.1626C23.2227 6.98682 23.3887 6.84912 23.5977 6.74951C23.8066 6.6499 24.04 6.6001 24.2979 6.6001C24.5791 6.6001 24.8252 6.64697 25.0361 6.74072C25.249 6.83252 25.4141 6.96826 25.5312 7.14795C25.6504 7.32764 25.71 7.55029 25.71 7.81592C25.71 7.94287 25.6797 8.06982 25.6191 8.19678C25.5605 8.32178 25.4736 8.43506 25.3584 8.53662C25.2451 8.63623 25.1055 8.71729 24.9395 8.77979C24.7754 8.84033 24.5869 8.87061 24.374 8.87061H23.8145V8.45166ZM23.8145 9.04932V8.63623H24.374C24.6143 8.63623 24.8223 8.66455 24.998 8.72119C25.1758 8.77588 25.3223 8.854 25.4375 8.95557C25.5527 9.05518 25.6377 9.17139 25.6924 9.3042C25.749 9.43701 25.7773 9.57959 25.7773 9.73193C25.7773 9.93115 25.7402 10.1089 25.666 10.2651C25.5918 10.4194 25.4873 10.5503 25.3525 10.6577C25.2197 10.7651 25.0635 10.8472 24.8838 10.9038C24.7041 10.9585 24.5098 10.9858 24.3008 10.9858C24.1191 10.9858 23.9424 10.9614 23.7705 10.9126C23.6006 10.8618 23.4473 10.7866 23.3105 10.687C23.1738 10.5854 23.0654 10.4585 22.9854 10.3062C22.9053 10.1519 22.8652 9.97314 22.8652 9.77002H23.6416C23.6416 9.88721 23.6699 9.9917 23.7266 10.0835C23.7852 10.1753 23.8652 10.2476 23.9668 10.3003C24.0703 10.3511 24.1865 10.3765 24.3154 10.3765C24.458 10.3765 24.5801 10.3511 24.6816 10.3003C24.7852 10.2476 24.8643 10.1733 24.9189 10.0776C24.9736 9.97998 25.001 9.86377 25.001 9.729C25.001 9.56885 24.9707 9.43896 24.9102 9.33936C24.8496 9.23975 24.7627 9.1665 24.6494 9.11963C24.5381 9.07275 24.4053 9.04932 24.251 9.04932H23.8145Z" fill="#FCFCFC"/>
</g>
<defs>
<clipPath id="clip0_5194_10122">
<rect width="12" height="12" fill="white" transform="translate(15 3)"/>
</clipPath>
</defs>
</svg>
