<svg width="27" height="28" viewBox="0 0 27 28" fill="none" xmlns="http://www.w3.org/2000/svg">
<path d="M17.8998 20.2665L19.7665 18.3998L14.8332 13.4665V7.33317H12.1665V14.5332L17.8998 20.2665ZM13.4998 27.3332C11.6554 27.3332 9.92206 26.9832 8.29984 26.2832C6.67762 25.5832 5.2665 24.6332 4.0665 23.4332C2.8665 22.2332 1.9165 20.8221 1.2165 19.1998C0.516504 17.5776 0.166504 15.8443 0.166504 13.9998C0.166504 12.1554 0.516504 10.4221 1.2165 8.79984C1.9165 7.17762 2.8665 5.7665 4.0665 4.5665C5.2665 3.3665 6.67762 2.4165 8.29984 1.7165C9.92206 1.0165 11.6554 0.666504 13.4998 0.666504C15.3443 0.666504 17.0776 1.0165 18.6998 1.7165C20.3221 2.4165 21.7332 3.3665 22.9332 4.5665C24.1332 5.7665 25.0832 7.17762 25.7832 8.79984C26.4832 10.4221 26.8332 12.1554 26.8332 13.9998C26.8332 15.8443 26.4832 17.5776 25.7832 19.1998C25.0832 20.8221 24.1332 22.2332 22.9332 23.4332C21.7332 24.6332 20.3221 25.5832 18.6998 26.2832C17.0776 26.9832 15.3443 27.3332 13.4998 27.3332ZM13.4998 24.6665C16.4554 24.6665 18.9721 23.6276 21.0498 21.5498C23.1276 19.4721 24.1665 16.9554 24.1665 13.9998C24.1665 11.0443 23.1276 8.52762 21.0498 6.44984C18.9721 4.37206 16.4554 3.33317 13.4998 3.33317C10.5443 3.33317 8.02762 4.37206 5.94984 6.44984C3.87206 8.52762 2.83317 11.0443 2.83317 13.9998C2.83317 16.9554 3.87206 19.4721 5.94984 21.5498C8.02762 23.6276 10.5443 24.6665 13.4998 24.6665Z" fill="#1A1A1A"/>
</svg>
