<svg width="25" height="30" viewBox="0 0 25 30" fill="none" xmlns="http://www.w3.org/2000/svg">
<path d="M12 29.1668C11.2208 29.1668 10.5538 28.8894 9.99892 28.3345C9.44406 27.7797 9.16663 27.1127 9.16663 26.3335H14.8333C14.8333 27.1127 14.5559 27.7797 14.001 28.3345C13.4461 28.8894 12.7791 29.1668 12 29.1668ZM0.666626 24.9168V22.0835H3.49996V12.1668C3.49996 10.2071 4.09024 8.46579 5.27079 6.94287C6.45135 5.41995 7.98607 4.42238 9.87496 3.95016V2.9585C9.87496 2.36822 10.0816 1.86648 10.4948 1.45329C10.9079 1.04009 11.4097 0.833496 12 0.833496C12.5902 0.833496 13.092 1.04009 13.5052 1.45329C13.9184 1.86648 14.125 2.36822 14.125 2.9585V3.41891C13.8888 3.89113 13.7118 4.38697 13.5937 4.90641C13.4757 5.42586 13.4166 5.95711 13.4166 6.50016C13.4166 8.45989 14.1073 10.1304 15.4885 11.5116C16.8698 12.8929 18.5402 13.5835 20.5 13.5835V22.0835H23.3333V24.9168H0.666626ZM20.5 10.7502C19.3194 10.7502 18.3159 10.337 17.4895 9.51058C16.6632 8.68419 16.25 7.68072 16.25 6.50016C16.25 5.31961 16.6632 4.31613 17.4895 3.48975C18.3159 2.66336 19.3194 2.25016 20.5 2.25016C21.6805 2.25016 22.684 2.66336 23.5104 3.48975C24.3368 4.31613 24.75 5.31961 24.75 6.50016C24.75 7.68072 24.3368 8.68419 23.5104 9.51058C22.684 10.337 21.6805 10.7502 20.5 10.7502Z" fill="#FF8A00"/>
</svg>
