<svg width="14" height="14" viewBox="0 0 14 14" fill="none" xmlns="http://www.w3.org/2000/svg">
<path d="M7.00016 6.99967C6.0835 6.99967 5.29877 6.67329 4.646 6.02051C3.99322 5.36773 3.66683 4.58301 3.66683 3.66634C3.66683 2.74967 3.99322 1.96495 4.646 1.31217C5.29877 0.659397 6.0835 0.333008 7.00016 0.333008C7.91683 0.333008 8.70155 0.659397 9.35433 1.31217C10.0071 1.96495 10.3335 2.74967 10.3335 3.66634C10.3335 4.58301 10.0071 5.36773 9.35433 6.02051C8.70155 6.67329 7.91683 6.99967 7.00016 6.99967ZM0.333496 13.6663V11.333C0.333496 10.8608 0.455024 10.4268 0.698079 10.0309C0.941135 9.63509 1.26405 9.33301 1.66683 9.12467C2.52794 8.69412 3.40294 8.3712 4.29183 8.15592C5.18072 7.94065 6.0835 7.83301 7.00016 7.83301C7.91683 7.83301 8.81961 7.94065 9.7085 8.15592C10.5974 8.3712 11.4724 8.69412 12.3335 9.12467C12.7363 9.33301 13.0592 9.63509 13.3022 10.0309C13.5453 10.4268 13.6668 10.8608 13.6668 11.333V13.6663H0.333496Z" fill="#1A1A1A"/>
</svg>
