<svg width="23" height="22" viewBox="0 0 23 22" fill="none" xmlns="http://www.w3.org/2000/svg">
<path d="M11.5002 11.0002C10.0335 11.0002 8.77794 10.4779 7.7335 9.4335C6.68905 8.38905 6.16683 7.1335 6.16683 5.66683C6.16683 4.20016 6.68905 2.94461 7.7335 1.90016C8.77794 0.855718 10.0335 0.333496 11.5002 0.333496C12.9668 0.333496 14.2224 0.855718 15.2668 1.90016C16.3113 2.94461 16.8335 4.20016 16.8335 5.66683C16.8335 7.1335 16.3113 8.38905 15.2668 9.4335C14.2224 10.4779 12.9668 11.0002 11.5002 11.0002ZM0.833496 21.6668V17.9335C0.833496 17.1779 1.02794 16.4835 1.41683 15.8502C1.80572 15.2168 2.32238 14.7335 2.96683 14.4002C4.34461 13.7113 5.74461 13.1946 7.16683 12.8502C8.58905 12.5057 10.0335 12.3335 11.5002 12.3335C12.9668 12.3335 14.4113 12.5057 15.8335 12.8502C17.2557 13.1946 18.6557 13.7113 20.0335 14.4002C20.6779 14.7335 21.1946 15.2168 21.5835 15.8502C21.9724 16.4835 22.1668 17.1779 22.1668 17.9335V21.6668H0.833496ZM3.50016 19.0002H19.5002V17.9335C19.5002 17.6891 19.4391 17.4668 19.3168 17.2668C19.1946 17.0668 19.0335 16.9113 18.8335 16.8002C17.6335 16.2002 16.4224 15.7502 15.2002 15.4502C13.9779 15.1502 12.7446 15.0002 11.5002 15.0002C10.2557 15.0002 9.02238 15.1502 7.80016 15.4502C6.57794 15.7502 5.36683 16.2002 4.16683 16.8002C3.96683 16.9113 3.80572 17.0668 3.6835 17.2668C3.56127 17.4668 3.50016 17.6891 3.50016 17.9335V19.0002ZM11.5002 8.3335C12.2335 8.3335 12.8613 8.07238 13.3835 7.55016C13.9057 7.02794 14.1668 6.40016 14.1668 5.66683C14.1668 4.9335 13.9057 4.30572 13.3835 3.7835C12.8613 3.26127 12.2335 3.00016 11.5002 3.00016C10.7668 3.00016 10.1391 3.26127 9.61683 3.7835C9.09461 4.30572 8.8335 4.9335 8.8335 5.66683C8.8335 6.40016 9.09461 7.02794 9.61683 7.55016C10.1391 8.07238 10.7668 8.3335 11.5002 8.3335Z" fill="#1A1A1A"/>
</svg>
