<svg width="27" height="26" viewBox="0 0 27 26" fill="none" xmlns="http://www.w3.org/2000/svg">
<path d="M24.1732 15.3371V24.6704C24.1732 25.4068 23.5763 26.0037 22.8399 26.0037H4.17322C3.43684 26.0037 2.83988 25.4068 2.83988 24.6704V15.3371H24.1732ZM16.8399 0.67041C19.4172 0.67041 21.5066 2.75974 21.5066 5.33708C21.5066 6.05334 21.3452 6.73193 21.0568 7.33846L25.5066 7.33708C26.243 7.33708 26.8399 7.93402 26.8399 8.67041V12.6704C26.8399 13.4068 26.243 14.0037 25.5066 14.0037H1.50655C0.770178 14.0037 0.173218 13.4068 0.173218 12.6704V8.67041C0.173218 7.93402 0.770178 7.33708 1.50655 7.33708L5.9563 7.33846C5.66792 6.73193 5.50655 6.05334 5.50655 5.33708C5.50655 2.75974 7.5959 0.67041 10.1732 0.67041C11.4799 0.67041 12.6611 1.20742 13.5082 2.07278C14.352 1.20742 15.5332 0.67041 16.8399 0.67041ZM10.1732 3.33708C9.06866 3.33708 8.17322 4.2325 8.17322 5.33708C8.17322 6.37666 8.9664 7.23101 9.9806 7.32792L10.1732 7.33708H12.1732V5.33708C12.1732 4.29748 11.38 3.44314 10.3658 3.34622L10.1732 3.33708ZM16.8399 3.33708L16.6472 3.34622C15.6964 3.43709 14.9399 4.19365 14.849 5.14446L14.8399 5.33708V7.33708H16.8399L17.0324 7.32792C18.0467 7.23101 18.8399 6.37666 18.8399 5.33708C18.8399 4.29748 18.0467 3.44314 17.0324 3.34622L16.8399 3.33708Z" fill="#1A1A1A"/>
</svg>
