<svg width="31" height="24" viewBox="0 0 31 24" fill="none" xmlns="http://www.w3.org/2000/svg">
<path opacity="0.4" d="M19.1835 4.99021C19.9902 4.99021 20.7649 5.30793 21.3289 5.87406C21.8969 6.44542 22.2115 7.2129 22.2102 8.01177V9.67225C22.2035 9.86706 22.0449 10.0253 21.8462 10.0305H9.15287C8.95554 10.024 8.79687 9.86576 8.79275 9.67225V8.01177C8.7782 6.35782 10.1329 5.00721 11.8182 4.99021H19.1835ZM22.425 0.00039224C25.3543 0.00039224 27.7357 2.33553 27.7357 5.20803V7.68307C27.7357 8.23221 27.2823 8.67936 26.721 8.67936C26.161 8.67936 25.7063 8.23221 25.7063 7.68307V5.20803C25.7063 3.4338 24.2343 1.99036 22.425 1.99036H20.301C19.741 1.99036 19.2863 1.54582 19.2863 0.996682C19.2863 0.446239 19.741 0.00039224 20.301 0.00039224H22.425ZM10.7371 0C11.2971 0 11.7518 0.445846 11.7518 0.99629C11.7518 1.54543 11.2985 1.99127 10.7371 1.99127L8.56514 1.99258C6.76247 1.9952 5.2958 3.43472 5.2958 5.20372V7.68268C5.2958 8.23181 4.8398 8.67897 4.2798 8.67897C3.7198 8.67897 3.26514 8.23181 3.26514 7.68268V5.20372C3.26514 2.33775 5.64247 0.0039224 8.5638 0.00130747L10.7371 0Z" fill="#1A1A1A"/>
<path d="M29.1522 12.0552H1.8495C1.2895 12.0552 0.833496 12.501 0.833496 13.0515C0.833496 13.6006 1.2895 14.0451 1.8495 14.0451H3.26416V18.7965C3.26416 21.6624 5.64283 23.9963 8.56416 23.9989L10.7362 24.0002C11.2975 24.0002 11.7508 23.5544 11.7522 23.0039C11.7522 22.4548 11.2975 22.0089 10.7375 22.0089L8.56683 22.0076C6.76283 22.005 5.29483 20.5655 5.29483 18.7965V14.0451H8.79216V15.367C8.77883 17.0209 10.1322 18.3729 11.8175 18.3885H19.1828C20.8695 18.3729 22.2228 17.0209 22.2095 15.367V14.0451H25.7068V18.7912C25.7068 20.5668 24.2348 22.0089 22.4255 22.0089H20.3015C19.7402 22.0089 19.2855 22.4548 19.2855 23.0039C19.2855 23.5544 19.7402 24.0002 20.3015 24.0002H22.4255C25.3535 24.0002 27.7362 21.6651 27.7362 18.7912V14.0451H29.1522C29.7122 14.0451 30.1668 13.6006 30.1668 13.0515C30.1668 12.501 29.7122 12.0552 29.1522 12.0552Z" fill="#1A1A1A"/>
</svg>
