<svg width="20" height="17" viewBox="0 0 20 17" fill="none" xmlns="http://www.w3.org/2000/svg">
<path d="M18.4633 16.1871H7.8307C7.48493 16.1871 7.16797 15.8989 7.16797 15.5531V15.5243V14.1989C7.16797 13.8531 7.45611 13.5361 7.80189 13.5361H7.8307H18.4633C18.809 13.5361 19.126 13.8243 19.126 14.1701V14.1989V15.5243C19.1548 15.8701 18.8667 16.1871 18.4633 16.1871C18.4921 16.1871 18.4921 16.1871 18.4633 16.1871Z" fill="#97C6EA"/>
<path d="M3.13372 16.7437H1.52993C1.11154 16.7437 0.728027 16.3951 0.728027 15.9767V15.9418V14.338C0.728027 13.9196 1.07668 13.5361 1.49506 13.5361H1.52993H3.13372C3.5521 13.5361 3.93562 13.8848 3.93562 14.3032V14.338V15.9418C3.97048 16.3602 3.62183 16.7089 3.20345 16.7437C3.16859 16.7437 3.16859 16.7437 3.13372 16.7437Z" fill="#97C6EA"/>
<path d="M10.1624 11.8262C9.74367 11.8262 9.35986 11.4773 9.35986 11.0586V11.0237V9.41871C9.35986 9.00002 9.70878 8.61621 10.1275 8.61621H10.1624H18.3967C18.8154 8.61621 19.1992 8.96512 19.1992 9.38382V9.41871V11.0237C19.1992 11.4424 18.8503 11.8262 18.4316 11.8262H18.3967H10.1624Z" fill="#97C6EA"/>
<path d="M13.2747 6.9058C12.856 6.9058 12.4722 6.55689 12.4722 6.13819V6.1033V4.4983C12.4722 4.07961 12.8211 3.6958 13.2398 3.6958H13.2747H18.4386C18.8573 3.6958 19.2411 4.04471 19.2411 4.46341V4.4983V6.1033C19.2411 6.522 18.8922 6.9058 18.4735 6.9058H18.4386H13.2747Z" fill="#97C6EA"/>
<path d="M0.998247 10.9739C0.643159 7.80768 3.12877 4.52312 6.08784 3.96089L6.88678 3.78335C7.03474 3.75376 7.1531 3.60581 7.12351 3.42826C7.12351 3.33949 7.06433 3.28031 7.00514 3.25072L5.02257 1.91914C4.81544 1.77119 4.78585 1.50487 4.9338 1.32733C4.9338 1.32733 4.9338 1.32733 4.9338 1.29774L5.43684 0.557971C5.5552 0.350837 5.85111 0.291656 6.02865 0.439609C6.02865 0.439609 6.02865 0.439609 6.05825 0.439609L10.8223 3.66499C11.0295 3.78335 11.0887 4.07926 10.9407 4.2568C10.9407 4.2568 10.9407 4.2568 10.9407 4.28639L7.68573 9.08007C7.56737 9.28721 7.27146 9.34639 7.09392 9.19844C7.09392 9.19844 7.09392 9.19844 7.06433 9.19844L6.32456 8.6954C6.11743 8.57703 6.05825 8.28113 6.2062 8.10358C6.2062 8.10358 6.2062 8.10358 6.2062 8.07399L7.50819 6.09142C7.59696 5.97306 7.59696 5.76592 7.449 5.67715C7.38982 5.61797 7.30105 5.58838 7.21228 5.61797L6.73883 5.70674C4.43076 6.1506 2.47778 8.75458 2.68491 11.0035C2.68491 11.2106 2.35942 11.5065 2.12269 11.5657H1.56047C1.29415 11.5953 0.998247 11.2402 0.998247 10.9739Z" fill="#97C6EA"/>
</svg>
